<?xml version="1.0" standalone="no"?>
<!DOCTYPE svg PUBLIC "-//W3C//DTD SVG 20010904//EN"
 "http://www.w3.org/TR/2001/REC-SVG-20010904/DTD/svg10.dtd">
<svg version="1.0" xmlns="http://www.w3.org/2000/svg"
 width="276.000000pt" height="94.000000pt" viewBox="0 0 276.000000 94.000000"
 preserveAspectRatio="xMidYMid meet">

<g transform="translate(0.000000,94.000000) scale(0.100000,-0.100000)"
fill="#000000" stroke="none">
<path d="M1272 805 c1 -33 3 -48 5 -32 4 23 9 27 38 27 29 0 34 -4 38 -27 2
-16 4 -1 5 32 0 39 -2 51 -7 35 -5 -19 -13 -25 -36 -25 -23 0 -31 6 -36 25 -5
16 -7 4 -7 -35z"/>
<path d="M1400 849 c-12 -8 -9 -9 12 -5 29 7 58 -1 58 -15 0 -5 -10 -9 -23 -9
-32 0 -60 -23 -55 -46 3 -15 12 -19 51 -19 47 -1 47 -1 47 33 0 48 -16 72 -48
72 -15 0 -34 -5 -42 -11z m70 -53 c0 -19 -26 -38 -46 -34 -27 5 -28 27 -2 37
33 14 48 13 48 -3z"/>
<path d="M1522 808 l-2 -58 44 0 c27 0 46 -5 49 -12 2 -7 3 0 1 16 -2 16 -5
47 -6 70 -1 41 -1 41 -7 -9 -6 -48 -7 -50 -36 -50 -29 0 -30 2 -36 50 l-6 50
-1 -57z"/>
<path d="M1640 805 c0 -30 4 -55 10 -55 5 0 24 19 42 41 l33 41 6 -43 c6 -43
6 -43 7 14 1 31 -1 57 -5 57 -5 0 -21 -19 -38 -43 l-30 -42 -3 43 c-5 61 -22
52 -22 -13z"/>
<path d="M1787 842 c-35 -38 -10 -92 42 -92 36 0 51 17 51 57 0 50 -59 72 -93
35z m67 -8 c9 -8 16 -22 16 -29 0 -17 -27 -45 -44 -45 -19 0 -36 22 -36 45 0
41 36 58 64 29z"/>
<path d="M1912 805 c0 -39 2 -51 7 -35 5 19 14 26 39 28 29 3 32 0 32 -22 0
-14 5 -26 10 -26 6 0 10 25 10 55 0 54 -15 77 -22 33 -2 -18 -10 -23 -33 -23
-23 0 -31 6 -36 25 -5 17 -7 5 -7 -35z"/>
<path d="M2045 850 c-4 -6 6 -9 26 -8 18 2 34 -2 36 -9 3 -8 -4 -13 -19 -13
-33 0 -61 -22 -56 -46 3 -15 12 -19 51 -19 l47 -1 0 41 c0 23 -5 46 -12 53
-15 15 -64 16 -73 2z m65 -59 c0 -20 -32 -37 -50 -26 -5 3 -10 12 -10 20 0 12
9 16 53 24 4 0 7 -8 7 -18z"/>
<path d="M2183 813 c-5 -28 -14 -47 -21 -45 -7 1 -12 -2 -12 -8 0 -5 9 -10 20
-10 14 0 21 9 25 38 10 57 13 62 35 62 17 0 20 -6 20 -50 0 -27 5 -50 10 -50
6 0 10 25 10 55 l0 55 -39 0 c-38 0 -39 -1 -48 -47z"/>
<path d="M2301 807 l-1 -58 36 3 c68 6 73 69 6 76 -19 2 -33 10 -35 20 -3 9
-5 -9 -6 -41z m67 -19 c-2 -17 -11 -24 -30 -26 -24 -3 -28 0 -28 22 0 22 4 26
31 26 26 0 30 -3 27 -22z"/>
<path d="M2422 805 c1 -33 3 -48 5 -32 4 23 9 27 38 27 29 0 34 -4 38 -27 2
-16 4 -1 5 32 0 39 -2 51 -7 35 -5 -19 -13 -25 -36 -25 -23 0 -31 6 -36 25 -5
16 -7 4 -7 -35z"/>
<path d="M2550 849 c-12 -8 -9 -9 12 -5 29 7 58 -1 58 -15 0 -5 -10 -9 -23 -9
-32 0 -60 -23 -55 -46 3 -15 12 -19 50 -19 l48 -1 -6 41 c-3 22 -7 46 -10 53
-4 15 -53 16 -74 1z m70 -54 c0 -18 -37 -38 -56 -31 -21 8 -17 25 9 36 33 13
47 12 47 -5z"/>
<path d="M2670 840 c-7 -14 -8 -26 0 -39 5 -11 7 -28 3 -38 -6 -17 -5 -17 14
0 24 21 53 22 53 2 0 -8 5 -15 10 -15 6 0 10 25 10 55 l0 55 -40 0 c-29 0 -42
-5 -50 -20z m70 -15 c0 -21 -5 -25 -30 -25 -23 0 -30 5 -30 19 0 20 12 29 43
30 12 1 17 -7 17 -24z"/>
<path d="M1280 660 c-11 -11 -20 -29 -20 -40 0 -30 38 -63 63 -56 12 3 25 6
30 6 4 0 7 7 7 16 0 13 -3 14 -14 4 -8 -6 -25 -10 -38 -8 -18 2 -24 10 -26 35
-3 28 1 33 23 39 15 4 31 1 40 -6 10 -8 15 -9 15 -2 0 12 -31 32 -49 32 -6 0
-20 -9 -31 -20z"/>
<path d="M1535 655 c-14 -13 -25 -29 -25 -35 0 -15 46 -60 63 -60 7 0 22 6 32
14 17 12 16 14 -19 12 -27 -1 -42 4 -50 17 -18 29 5 52 50 51 35 -2 36 0 19
12 -27 20 -42 17 -70 -11z"/>
<path d="M1778 669 c-10 -5 -22 -19 -28 -29 -21 -39 27 -86 75 -74 37 9 30 24
-8 17 -23 -3 -37 0 -46 11 -12 14 -8 16 38 16 57 0 66 15 31 50 -22 22 -37 24
-62 9z m60 -26 c2 -9 -9 -13 -38 -13 -37 0 -41 2 -30 16 15 17 61 15 68 -3z"/>
<path d="M2058 673 c-32 -8 -19 -19 18 -15 28 3 35 1 32 -9 -3 -8 -15 -16 -29
-17 -49 -8 -65 -43 -28 -63 15 -8 28 -8 45 -1 17 8 24 8 28 -1 2 -7 5 11 5 40
1 42 -3 54 -18 63 -20 10 -25 11 -53 3z m50 -70 c-4 -22 -58 -31 -58 -10 0 20
10 27 37 27 18 0 24 -5 21 -17z"/>
<path d="M1390 615 c0 -30 3 -55 8 -55 4 0 20 18 36 40 17 22 33 40 36 40 3 0
4 -15 2 -34 -2 -18 1 -37 7 -40 7 -5 11 11 11 48 0 31 -4 56 -10 56 -5 0 -22
-16 -37 -35 -15 -19 -30 -35 -33 -35 -4 0 -4 16 -2 35 3 21 0 35 -7 35 -7 0
-11 -21 -11 -55z"/>
<path d="M1657 663 c19 -4 23 -12 26 -56 l3 -52 2 52 c2 45 5 52 25 56 12 2 0
4 -28 4 -27 0 -40 -2 -28 -4z"/>
<path d="M1880 615 c0 -30 5 -55 10 -55 6 0 10 19 11 43 l0 42 19 -42 c11 -24
22 -43 25 -43 3 0 14 19 25 43 l19 42 0 -43 c1 -26 5 -41 11 -37 6 3 10 28 10
56 0 62 -20 65 -46 8 l-18 -41 -20 41 c-29 59 -46 54 -46 -14z"/>
<path d="M1277 483 c-15 -14 -6 -23 14 -13 22 12 49 7 49 -10 0 -5 -10 -10
-23 -10 -32 0 -60 -23 -55 -46 3 -15 12 -19 51 -19 l47 -1 0 41 c0 23 -5 46
-12 53 -13 13 -60 16 -71 5z m63 -62 c0 -20 -32 -37 -50 -26 -5 3 -10 12 -10
20 0 12 9 16 53 24 4 0 7 -8 7 -18z"/>
<path d="M1390 435 c0 -30 5 -55 10 -55 6 0 10 9 10 19 0 31 17 33 38 6 11
-14 26 -25 33 -25 7 0 0 13 -16 30 l-29 30 24 25 c32 34 13 32 -22 -2 l-28
-27 0 27 c0 15 -4 27 -10 27 -5 0 -10 -25 -10 -55z"/>
<path d="M1510 435 c0 -30 5 -55 10 -55 6 0 10 9 10 19 0 31 17 33 38 6 11
-14 26 -25 33 -25 7 0 0 13 -16 30 l-29 30 24 25 c32 34 13 32 -22 -2 l-28
-27 0 27 c0 15 -4 27 -10 27 -5 0 -10 -25 -10 -55z"/>
<path d="M1630 412 c0 -46 4 -71 10 -67 6 3 10 14 10 24 0 14 6 17 32 13 35
-5 58 16 58 54 0 35 -27 55 -71 52 l-39 -3 0 -73z m87 42 c12 -19 11 -24 -5
-44 -27 -34 -62 -20 -62 25 0 48 40 60 67 19z"/>
<path d="M1776 468 c-21 -29 -20 -51 2 -71 21 -19 60 -22 82 -6 11 8 7 9 -18
4 -31 -6 -62 6 -62 26 0 4 22 9 50 11 49 3 49 3 37 28 -17 35 -69 40 -91 8z
m65 2 c31 -17 22 -30 -21 -30 -42 0 -52 12 -22 29 21 13 20 13 43 1z"/>
<path d="M1914 445 c-3 -25 -10 -48 -15 -51 -12 -7 -11 -44 1 -44 6 0 10 7 10
15 0 19 86 21 93 3 2 -7 3 0 1 16 -2 16 -4 46 -4 67 0 39 0 39 -39 39 -39 0
-40 0 -47 -45z m66 -10 c0 -41 -2 -45 -25 -45 -22 0 -25 4 -25 38 0 43 5 52
32 52 15 0 18 -8 18 -45z"/>
<path d="M2030 435 c0 -68 14 -71 55 -12 l30 42 6 -45 c6 -44 6 -43 7 15 l1
60 -39 -45 -40 -45 0 43 c0 23 -4 42 -10 42 -5 0 -10 -25 -10 -55z"/>
<path d="M2175 481 c15 -6 22 -20 26 -57 l6 -49 1 48 c2 39 6 49 25 57 17 7
12 9 -28 9 -34 0 -44 -3 -30 -8z"/>
<path d="M2280 479 c-12 -8 -8 -9 14 -6 17 3 36 3 43 0 21 -8 15 -23 -10 -23
-32 0 -60 -23 -55 -46 3 -15 12 -19 51 -19 l47 -1 0 41 c0 23 -5 46 -12 53
-15 15 -58 15 -78 1z m70 -52 c0 -7 -5 -18 -12 -25 -15 -15 -48 -16 -48 -2 0
6 0 13 -1 18 0 4 10 10 23 14 35 9 38 9 38 -5z"/>
<path d="M2402 438 l-2 -58 44 0 c34 0 46 -4 50 -17 3 -10 3 0 1 22 -3 22 -6
56 -6 75 -2 29 -3 26 -8 -15 -6 -48 -7 -50 -36 -50 -29 0 -30 2 -36 50 l-6 50
-1 -57z"/>
<path d="M2532 438 c-1 -32 1 -58 6 -58 4 0 21 19 37 41 l30 41 3 -41 c5 -61
22 -50 22 14 0 30 -4 55 -10 55 -5 0 -24 -19 -42 -41 l-33 -41 -6 43 c-6 43
-6 43 -7 -13z"/>
<path d="M2650 435 c0 -68 14 -71 55 -12 l30 42 6 -45 c6 -44 6 -43 7 15 l1
60 -39 -45 -40 -45 0 43 c0 23 -4 42 -10 42 -5 0 -10 -25 -10 -55z"/>
<path d="M888 244 c-53 -28 -74 -113 -43 -173 16 -32 69 -61 112 -61 39 0 89
33 109 71 40 79 -21 179 -108 179 -24 -1 -55 -7 -70 -16z"/>
</g>
</svg>
